<svg xmlns="http://www.w3.org/2000/svg" viewBox="0 0 64 64" fill="none">
  <defs>
    <linearGradient id="g" x1="0" y1="0" x2="64" y2="64" gradientUnits="userSpaceOnUse">
      <stop offset="0%" stop-color="#a855f7"/>
      <stop offset="100%" stop-color="#6366f1"/>
    </linearGradient>
  </defs>
  <rect width="64" height="64" rx="14" fill="url(#g)"/>
  <path d="M20 22a2 2 0 0 1 2-2h4a2 2 0 0 1 2 2v20a2 2 0 0 1-2 2h-4a2 2 0 0 1-2-2V22z" fill="#fff" opacity="0.95"/>
  <path d="M28 24c0-1.1.9-2 2-2h0c5.5 0 10 4.5 10 10s-4.5 10-10 10h0a2 2 0 0 1-2-2v-16z" fill="#fff" opacity="0.85"/>
  <path d="M42 26a1.5 1.5 0 0 1 2.1-.3 14 14 0 0 1 0 12.6 1.5 1.5 0 1 1-2.4-1.8 11 11 0 0 0 0-8.4c-.4-.6-.3-1.5.3-2.1z" fill="#fff" opacity="0.6"/>
  <path d="M46 21a1.5 1.5 0 0 1 2.1-.2 20 20 0 0 1 0 22.4 1.5 1.5 0 1 1-2.3-1.9 17 17 0 0 0 0-18.2c-.4-.6-.3-1.5.2-2.1z" fill="#fff" opacity="0.4"/>
</svg>
